<svg width="617" height="405" viewBox="0 0 617 405" fill="none" xmlns="http://www.w3.org/2000/svg">
<path d="M97.7465 59.7084C97.7465 56.3943 100.434 53.7076 103.749 53.7076H185.072C190.827 53.7076 195.493 49.0432 195.493 43.2893V18.999C195.493 8.50618 186.985 0 176.489 0H19.0039C8.50835 0 0 8.50618 0 18.999V118.35C0 124.104 4.66561 128.768 10.421 128.768H91.7443C95.0593 128.768 97.7465 131.455 97.7465 134.769C97.7465 138.083 95.0592 140.769 91.7443 140.769H10.421C4.66568 140.769 0 145.434 0 151.188V175.478C0 185.971 8.50835 194.477 19.0039 194.477H176.489C186.985 194.477 195.493 185.971 195.493 175.478V76.1275C195.493 70.3736 190.827 65.7092 185.072 65.7092H103.749C100.434 65.7092 97.7465 63.0225 97.7465 59.7084Z" fill="#FF9B00"/>
<path d="M211.112 18.999V175.478C211.112 185.971 219.62 194.477 230.116 194.477H278.903C284.658 194.477 289.324 189.813 289.324 184.059V148.036C289.324 142.282 293.99 137.618 299.745 137.618H317.005C322.761 137.618 327.426 142.282 327.426 148.036V184.059C327.426 189.813 332.092 194.477 337.847 194.477H386.635C397.13 194.477 405.639 185.971 405.639 175.478V18.999C405.639 8.50618 397.13 0 386.635 0H230.116C219.62 0 211.112 8.50618 211.112 18.999ZM320.256 71.824H296.732C292.784 71.824 289.397 68.7362 289.325 64.7899C289.252 60.7695 292.489 57.4874 296.494 57.4874H320.019C323.966 57.4874 327.353 60.5752 327.425 64.5215C327.499 68.5419 324.261 71.824 320.256 71.824Z" fill="#FF9B00"/>
<path d="M391.346 373.343C389.149 374.565 386.665 375.215 384.082 375.215C380.083 375.215 376.322 373.658 373.494 370.83L372.282 369.618C367.455 364.793 366.619 357.465 369.774 351.772C363.517 349.977 358.925 344.205 358.925 337.381V335.666C358.925 328.844 363.514 323.073 369.769 321.276C368.546 319.08 367.896 316.596 367.896 314.014C367.896 310.015 369.454 306.256 372.283 303.428L373.493 302.218C376.323 299.389 380.083 297.833 384.082 297.833C386.665 297.833 389.149 298.482 391.346 299.704C393.134 293.483 398.859 288.913 405.639 288.868V229.091C405.639 218.598 397.13 210.092 386.635 210.092H230.116C219.62 210.092 211.112 218.598 211.112 229.091V385.57C211.112 396.063 219.62 404.569 230.116 404.569H278.903C284.658 404.569 289.324 399.905 289.324 394.151V358.128C289.324 352.374 293.99 347.71 299.745 347.71H317.006C322.761 347.71 327.427 352.374 327.427 358.128V394.151C327.427 399.905 332.092 404.569 337.848 404.569H386.635C397.13 404.569 405.639 396.063 405.639 385.57V384.179C398.859 384.134 393.134 379.564 391.346 373.343ZM320.256 281.916H296.732C292.784 281.916 289.397 278.828 289.325 274.882C289.252 270.861 292.489 267.579 296.494 267.579H320.019C323.966 267.579 327.353 270.667 327.425 274.613C327.499 278.634 324.261 281.916 320.256 281.916Z" fill="#FF4F00"/>
<path d="M439.296 329.879H422.642L434.418 318.106C436.679 315.846 436.679 312.182 434.418 309.922L433.206 308.71C430.945 306.45 427.28 306.45 425.019 308.71L413.243 320.483V303.833C413.243 300.637 410.651 298.046 407.454 298.046H405.74C402.543 298.046 399.951 300.637 399.951 303.833V320.483L388.175 308.71C385.914 306.45 382.249 306.45 379.988 308.71L378.776 309.922C376.515 312.182 376.515 315.846 378.776 318.106L390.552 329.879H373.898C370.701 329.879 368.109 332.47 368.109 335.667V337.381C368.109 340.577 370.701 343.168 373.898 343.168H390.552L378.776 354.941C376.515 357.201 376.515 360.866 378.776 363.126L379.988 364.338C382.249 366.598 385.914 366.598 388.175 364.338L399.951 352.565V369.214C399.951 372.411 402.543 375.002 405.74 375.002H407.454C410.651 375.002 413.243 372.411 413.243 369.214V352.565L425.019 364.338C427.28 366.598 430.945 366.598 433.206 364.338L434.418 363.126C436.679 360.866 436.679 357.201 434.418 354.941L422.642 343.168H439.296C442.493 343.168 445.085 340.577 445.085 337.381V335.667C445.085 332.47 442.493 329.879 439.296 329.879Z" fill="#070154"/>
<path d="M176.489 210.092H19.004C8.50835 210.092 0 218.598 0 229.091V385.57C0 396.063 8.50835 404.569 19.004 404.569H45.4912C51.2465 404.569 55.9122 399.905 55.9122 394.151V339.926C55.9122 336.052 58.9438 332.728 62.8183 332.658C66.7656 332.585 69.988 335.762 69.988 339.692V394.151C69.988 399.905 74.6537 404.569 80.4091 404.569H115.084C120.839 404.569 125.505 399.905 125.505 394.151V339.926C125.505 336.052 128.537 332.728 132.411 332.658C136.359 332.585 139.581 335.763 139.581 339.692V394.151C139.581 399.905 144.247 404.569 150.002 404.569H176.489C186.985 404.569 195.493 396.063 195.493 385.57V229.091C195.493 218.598 186.985 210.092 176.489 210.092Z" fill="#FF4F00"/>
<path d="M525.006 338.86H606.329C612.085 338.86 616.75 334.195 616.75 328.442V229.091C616.75 218.598 608.242 210.092 597.747 210.092H440.261C429.766 210.092 421.257 218.598 421.257 229.091V253.381C421.257 259.135 425.923 263.799 431.678 263.799H513.002C516.317 263.799 519.004 266.486 519.004 269.8C519.004 273.114 516.317 275.801 513.002 275.801H431.678C425.923 275.801 421.257 280.465 421.257 286.219V298.062C421.482 298.596 421.687 299.141 421.849 299.704C424.046 298.482 426.529 297.833 429.113 297.833C433.112 297.833 436.871 299.389 439.7 302.216L440.914 303.43C443.741 306.256 445.298 310.015 445.298 314.014C445.298 316.596 444.648 319.08 443.426 321.276C449.68 323.073 454.269 328.844 454.269 335.666V337.381C454.269 344.205 449.678 349.977 443.421 351.772C446.576 357.465 445.74 364.793 440.913 369.618L439.7 370.83C436.872 373.658 433.112 375.215 429.113 375.215C426.529 375.215 424.046 374.565 421.849 373.343C421.687 373.906 421.482 374.451 421.257 374.985V385.57C421.257 396.063 429.766 404.569 440.261 404.569H597.747C608.242 404.569 616.75 396.063 616.75 385.57V361.28C616.75 355.526 612.085 350.861 606.329 350.861H525.006C521.691 350.861 519.004 348.175 519.004 344.861C519.004 341.546 521.691 338.86 525.006 338.86Z" fill="#FF1B29"/>
</svg>
